<?xml version="1.0" encoding="UTF-8"?>
<svg width="1.1347in" height="1.0068in" fill="none" version="1.1" viewBox="0 0 108.93 96.652" xmlns="http://www.w3.org/2000/svg" xmlns:cc="http://creativecommons.org/ns#" xmlns:dc="http://purl.org/dc/elements/1.1/" xmlns:rdf="http://www.w3.org/1999/02/22-rdf-syntax-ns#">
 <defs>
  <linearGradient id="paint0_linear" x1="68.006" x2="9.3084" y1="60.373" y2="-12.793" gradientTransform="translate(-1.0885,-2.3078e-5)" gradientUnits="userSpaceOnUse">
   <stop stop-color="#F2F9FF" offset="0"/>
   <stop stop-color="#fff" offset="1"/>
  </linearGradient>
 </defs>
 <metadata>
  <rdf:RDF>
   <cc:Work rdf:about="">
    <dc:format>image/svg+xml</dc:format>
    <dc:type rdf:resource="http://purl.org/dc/dcmitype/StillImage"/>
    <dc:title/>
   </cc:Work>
  </rdf:RDF>
 </metadata>
 <g transform="matrix(1 0 0 1 -3.7864e-5 -.00050305)" fill="none">
  <path d="m18.396 96.524s-31.546-53.952-12.018-63.443c19.529-9.4915 72.607-69.438 98.645 0 26.038 69.437-86.628 63.443-86.628 63.443z" clip-rule="evenodd" fill="url(#paint0_linear)" fill-opacity=".24" fill-rule="evenodd"/>
 </g>
 <g transform="matrix(1 0 0 1 30.089 19.053)" fill="none">
  <g fill="#01c67f">
   <path d="m36.164 42.75 6.3984-6.0704c0.4688-0.4453 0.4922-1.1718 0.0469-1.6406-0.4453-0.4687-1.1719-0.4922-1.6406-0.0469l-5.5782 5.2735-2.2734-2.3672c-0.4453-0.4688-1.1719-0.4688-1.6406-0.0234-0.4688 0.4453-0.4688 1.1718-0.0235 1.6406l3.0704 3.1875c0.2343 0.2344 0.539 0.3516 0.8437 0.3516 0.2813 0 0.5625-0.0938 0.7969-0.3047z"/>
   <path d="m48.586 36.656c-0.0937-0.5625-0.1875-0.961-0.3047-1.2422-1.6172-4.7812-6.0469-8.0156-11.133-8.0391h-0.3516c-5.0156 0.0469-9.4453 3.2813-11.039 8.0391-0.1172 0.3047-0.211 0.7031-0.3047 1.2656-0.3516 2.0157-0.1172 4.0313 0.6562 5.8125 0 0.0235 0.0235 0.0703 0.0469 0.0938 0.0234 0.0468 0.0234 0.0703 0.0469 0.1172 0.6094 1.3125 1.4765 2.8359 2.3203 4.3125 0.5156 0.8906 1.0312 1.7812 1.4766 2.625 0.3046 0.5625 1.0078 0.7734 1.5703 0.4687s0.7734-1.0078 0.4687-1.5703c-0.4687-0.8672-0.9844-1.7813-1.5234-2.6953-0.7969-1.4063-1.6406-2.8594-2.2031-4.0781-0.0235-0.0469-0.0469-0.0938-0.0704-0.1641-0.6093-1.4063-0.7734-2.9766-0.5156-4.5234 0.0235-0.1641 0.1172-0.6328 0.211-0.9375 1.289-3.8438 4.8515-6.4219 8.9297-6.4688h0.3281c4.0078 0.0235 7.5703 2.625 8.8828 6.4922 0.0937 0.2812 0.1875 0.75 0.2109 0.8906 0.2813 1.5703 0.0938 3.1172-0.5156 4.5703-0.0234 0.0469-0.0469 0.0938-0.0469 0.1407-0.5625 1.2187-1.4062 2.6718-2.2031 4.0781-0.5391 0.914-1.0547 1.8281-1.5234 2.6953-0.3047 0.5625-0.0938 1.2656 0.4687 1.5703 0.1641 0.0938 0.3516 0.1406 0.5391 0.1406 0.4219 0 0.8203-0.2343 1.0312-0.6093 0.4453-0.8438 0.961-1.7344 1.4766-2.625 0.8437-1.4766 1.7109-2.9766 2.3203-4.3125 0-0.0235 0.0234-0.0704 0.0469-0.0938l0.0469-0.0937c0.7968-1.8047 1.0078-3.8438 0.6562-5.8594z"/>
   <path d="m41.367 51.562h-8.6953c-0.4687 0-0.8906 0.211-1.1953 0.5625-0.3047 0.3516-0.4219 0.8203-0.3281 1.2657l0.4219 2.2031c0.1406 0.7266 0.7734 1.2656 1.5234 1.2656h0.3984c0.8672 1.0547 2.1563 1.6875 3.5391 1.6875s2.6719-0.6328 3.5391-1.6875h0.3984c0.75 0 1.3828-0.539 1.5234-1.2656l0.4219-2.2031c0.0938-0.4454-0.0234-0.9141-0.3281-1.2657-0.3281-0.3515-0.75-0.5625-1.2188-0.5625zm-1.0547 2.9766h-0.3515c-0.4219 0-0.7969 0.2109-1.0078 0.5625-0.3985 0.6797-1.1485 1.1016-1.9453 1.1016-0.7969 0-1.5469-0.4219-1.9454-1.1016-0.2109-0.3516-0.5859-0.5625-1.0078-0.5625h-0.3047l-0.1171-0.6562h6.8203z"/>
   <path d="m11.602 13.781c3.7969 0 6.8906-3.0938 6.8906-6.8906 0-3.7969-3.0937-6.8907-6.8906-6.8907s-6.8906 3.0938-6.8906 6.8907c0 3.7968 3.0937 6.8906 6.8906 6.8906zm0-11.461c2.5078 0 4.5703 2.0625 4.5703 4.5703s-2.0625 4.5703-4.5703 4.5703-4.5703-2.0625-4.5703-4.5703 2.0625-4.5703 4.5703-4.5703z"/>
   <path d="m19.922 23.227c-0.6328-0.0469-1.1953 0.4453-1.2422 1.0781l-1.0547 15.516c0 0.0469-0.0234 0.0938-0.0234 0.1172l-0.9844 15.094c-0.0469 0.6562-0.6094 1.1953-1.2656 1.1953h-7.5c-0.6797 0-1.2188-0.5156-1.2657-1.1953l-0.9843-15.094c-0.0235-0.4687-0.3516-0.8906-0.8204-1.0312-1.4531-0.4453-1.4531-0.4453-1.5468-2.0156l-0.8907-16.008v-0.164c1.3125-0.3985 3.6094-1.125 4.711-1.4766l3.7734 3.5156c0.4453 0.4219 1.1485 0.4219 1.5938 0l3.7968-3.5625 11.133 2.5079c0.164 0.0468 0.3281 0.0468 0.4921 0l10.453-2.1329c0.6328-0.1171 1.0312-0.75 0.914-1.3593-0.1171-0.6094-0.75-1.0313-1.3593-0.9141l-10.219 2.0859-11.484-2.6015c-0.375-0.0938-0.7734 0.0234-1.0547 0.2812l-3.4921 3.2578-3.4688-3.2578c-0.3047-0.2812-0.75-0.375-1.1484-0.2578 0 0-3.5391 1.125-5.3438 1.6641-1.0547 0.3281-1.6406 1.125-1.6406 2.2031v0.2813l0.8906 15.797 0.0235 0.2578c0.164 2.3907 0.5625 3.1407 2.414 3.8204l0.9375 14.32c0.1172 1.875 1.6875 3.3515 3.586 3.3515h7.5c1.875 0 3.4453-1.4765 3.5859-3.3515l0.9844-14.977c0-0.0469 0-0.0703 0.0234-0.1172l1.0781-15.633c0.0235-0.6094-0.4453-1.1719-1.1015-1.1953z"/>
  </g>
 </g>
</svg>
