<svg width="57" height="66" viewBox="0 0 57 66" fill="none" xmlns="http://www.w3.org/2000/svg">
<path d="M27.8941 11.5614C28.8736 11.5614 29.9014 10.7671 29.9014 9.78694V5.47903C29.9014 4.4989 28.8736 3.70459 27.8941 3.70459C26.9145 3.70459 25.8868 4.4989 25.8868 5.47903V9.78694C25.8868 10.7671 26.9145 11.5614 27.8941 11.5614Z" fill="url(#paint0_linear)"/>
<path d="M36.1352 13.31C36.3939 13.4433 36.6706 13.5061 36.9427 13.5061C37.5874 13.5061 38.209 13.1534 38.5233 12.5406L40.5183 8.64707C40.9648 7.77505 40.6198 6.70575 39.7475 6.25898C38.8755 5.81079 37.8062 6.15719 37.3594 7.02921L35.365 10.9222C34.9182 11.7942 35.2632 12.8635 36.1352 13.31Z" fill="url(#paint1_linear)"/>
<path d="M17.8381 12.1908C18.1401 12.8342 18.7784 13.2125 19.4454 13.2125C19.698 13.2125 19.9538 13.1583 20.1975 13.0444C21.0848 12.6278 21.4667 11.5714 21.0506 10.6839L19.1973 6.7321C18.7818 5.84546 17.7254 5.46465 16.8376 5.87901C15.9504 6.29566 15.5685 7.35149 15.9846 8.239L17.8381 12.1908Z" fill="url(#paint2_linear)"/>
<path d="M45.1643 23.0837H41.6128L41.8637 19.0457C41.9308 17.952 41.0617 17.0619 39.9657 17.0619H15.9136C14.8176 17.0619 13.9482 17.952 14.0162 19.0457L14.2665 23.0837H11.298C8.52337 23.0837 6.27148 25.3955 6.27148 28.1699C6.27148 29.6472 6.91669 31.0773 8.05252 32.0316L12.4585 35.7755L12.4591 35.7912L15.3108 38.2046C15.3103 38.2011 15.3097 38.1985 15.3091 38.1954L15.3108 38.1968L15.3186 38.2071C16.2566 42.8939 19.7162 46.6306 24.1939 47.9892C25.0834 48.2596 25.6959 49.0763 25.761 50.0036L26.4203 56.6761C26.4467 57.0492 26.151 57.2075 25.7768 57.2075H20.0836C19.7269 57.2075 19.5775 57.8157 19.5775 58.1713V59.4617C19.5775 59.8184 19.7269 59.7883 20.0836 59.7883H35.7957C36.1519 59.7883 36.2092 59.8184 36.2092 59.4617V58.1713C36.2092 57.8157 36.1519 57.2075 35.7957 57.2075H30.1031C29.7288 57.2075 29.4332 57.0498 29.459 56.6767L30.1188 49.9254C30.1839 48.998 30.7959 48.2444 31.6854 47.9737C35.966 46.6739 39.3145 43.1565 40.4213 38.8552H40.4285L40.4302 38.8297C40.4297 38.8331 40.4239 38.8251 40.4228 38.828L43.3783 36.3074V36.3034L48.4037 32.0597C49.533 31.1054 50.1805 29.6458 50.1805 28.1682C50.1807 25.3944 47.932 23.0837 45.1643 23.0837ZM9.71684 30.094C9.16857 29.6298 8.85199 28.8859 8.85199 28.1702C8.85199 26.821 9.94911 25.6648 11.2977 25.6648H11.8314H11.8391H14.4265H14.4188H14.4248L14.9636 34.4693L12.2388 32.232L9.71684 30.094ZM27.8664 39.382C23.9169 39.382 20.715 36.1795 20.715 32.23C20.715 28.2794 23.9169 25.0775 27.8664 25.0775C31.817 25.0775 35.0189 28.2794 35.0189 32.23C35.0192 36.1795 31.8173 39.382 27.8664 39.382ZM46.7385 30.094L43.6095 32.7393L40.8836 34.98L41.4537 25.6648H41.462H41.4542H44.0416H44.0494H45.164C46.5126 25.6648 47.6031 26.821 47.6031 28.1702C47.6031 28.8856 47.2868 29.6298 46.7385 30.094Z" fill="url(#paint3_linear)"/>
<path d="M27.8665 35.7786C29.8263 35.7786 31.4151 34.1898 31.4151 32.23C31.4151 30.2702 29.8263 28.6814 27.8665 28.6814C25.9067 28.6814 24.3179 30.2702 24.3179 32.23C24.3179 34.1898 25.9067 35.7786 27.8665 35.7786Z" fill="url(#paint4_linear)"/>
<defs>
<linearGradient id="paint0_linear" x1="27.8941" y1="3.70459" x2="27.8941" y2="11.5614" gradientUnits="userSpaceOnUse">
<stop stop-color="#FBC917"/>
<stop offset="1" stop-color="#FF8364"/>
</linearGradient>
<linearGradient id="paint1_linear" x1="37.9415" y1="6.06287" x2="37.9415" y2="13.5061" gradientUnits="userSpaceOnUse">
<stop stop-color="#FBC917"/>
<stop offset="1" stop-color="#FF8364"/>
</linearGradient>
<linearGradient id="paint2_linear" x1="18.5176" y1="5.71155" x2="18.5176" y2="13.2125" gradientUnits="userSpaceOnUse">
<stop stop-color="#FBC917"/>
<stop offset="1" stop-color="#FF8364"/>
</linearGradient>
<linearGradient id="paint3_linear" x1="28.226" y1="17.0619" x2="28.226" y2="59.7889" gradientUnits="userSpaceOnUse">
<stop stop-color="#FBC917"/>
<stop offset="1" stop-color="#FF8364"/>
</linearGradient>
<linearGradient id="paint4_linear" x1="27.8665" y1="28.6814" x2="27.8665" y2="35.7786" gradientUnits="userSpaceOnUse">
<stop stop-color="#FBC917"/>
<stop offset="1" stop-color="#FF8364"/>
</linearGradient>
</defs>
</svg>
