<svg width="102" height="118" viewBox="0 0 102 118" fill="none" xmlns="http://www.w3.org/2000/svg">
<path fill-rule="evenodd" clip-rule="evenodd" d="M102 3.00006C102 4.65692 100.657 6.00006 99 6.00006C97.3431 6.00006 96 4.65692 96 3.00006C96 1.34321 97.3431 6.10352e-05 99 6.10352e-05C100.657 6.10352e-05 102 1.34321 102 3.00006ZM99 22.0001C100.657 22.0001 102 20.6569 102 19.0001C102 17.3432 100.657 16.0001 99 16.0001C97.3431 16.0001 96 17.3432 96 19.0001C96 20.6569 97.3431 22.0001 99 22.0001ZM102 35.0001C102 36.6569 100.657 38.0001 99 38.0001C97.3431 38.0001 96 36.6569 96 35.0001C96 33.3432 97.3431 32.0001 99 32.0001C100.657 32.0001 102 33.3432 102 35.0001ZM99 54.0001C100.657 54.0001 102 52.6569 102 51.0001C102 49.3432 100.657 48.0001 99 48.0001C97.3431 48.0001 96 49.3432 96 51.0001C96 52.6569 97.3431 54.0001 99 54.0001ZM102 67.0001C102 68.6569 100.657 70.0001 99 70.0001C97.3431 70.0001 96 68.6569 96 67.0001C96 65.3432 97.3431 64.0001 99 64.0001C100.657 64.0001 102 65.3432 102 67.0001ZM99 86.0001C100.657 86.0001 102 84.6569 102 83.0001C102 81.3432 100.657 80.0001 99 80.0001C97.3431 80.0001 96 81.3432 96 83.0001C96 84.6569 97.3431 86.0001 99 86.0001ZM102 99.0001C102 100.657 100.657 102 99 102C97.3431 102 96 100.657 96 99.0001C96 97.3432 97.3431 96.0001 99 96.0001C100.657 96.0001 102 97.3432 102 99.0001ZM3 118C4.65685 118 6 116.657 6 115C6 113.343 4.65685 112 3 112C1.34315 112 0 113.343 0 115C0 116.657 1.34315 118 3 118ZM22 115C22 116.657 20.6569 118 19 118C17.3431 118 16 116.657 16 115C16 113.343 17.3431 112 19 112C20.6569 112 22 113.343 22 115ZM35 118C36.6569 118 38 116.657 38 115C38 113.343 36.6569 112 35 112C33.3431 112 32 113.343 32 115C32 116.657 33.3431 118 35 118ZM54 115C54 116.657 52.6569 118 51 118C49.3431 118 48 116.657 48 115C48 113.343 49.3431 112 51 112C52.6569 112 54 113.343 54 115ZM67 118C68.6569 118 70 116.657 70 115C70 113.343 68.6569 112 67 112C65.3431 112 64 113.343 64 115C64 116.657 65.3431 118 67 118ZM86 115C86 116.657 84.6569 118 83 118C81.3431 118 80 116.657 80 115C80 113.343 81.3431 112 83 112C84.6569 112 86 113.343 86 115ZM102 115C102 116.657 100.657 118 99 118C97.3431 118 96 116.657 96 115C96 113.343 97.3431 112 99 112C100.657 112 102 113.343 102 115ZM83 102C84.6569 102 86 100.657 86 99.0001C86 97.3432 84.6569 96.0001 83 96.0001C81.3431 96.0001 80 97.3432 80 99.0001C80 100.657 81.3431 102 83 102ZM70 99.0001C70 100.657 68.6569 102 67 102C65.3431 102 64 100.657 64 99.0001C64 97.3432 65.3431 96.0001 67 96.0001C68.6569 96.0001 70 97.3432 70 99.0001ZM51 102C52.6569 102 54 100.657 54 99.0001C54 97.3432 52.6569 96.0001 51 96.0001C49.3431 96.0001 48 97.3432 48 99.0001C48 100.657 49.3431 102 51 102ZM38 99.0001C38 100.657 36.6569 102 35 102C33.3431 102 32 100.657 32 99.0001C32 97.3432 33.3431 96.0001 35 96.0001C36.6569 96.0001 38 97.3432 38 99.0001ZM19 102C20.6569 102 22 100.657 22 99.0001C22 97.3432 20.6569 96.0001 19 96.0001C17.3431 96.0001 16 97.3432 16 99.0001C16 100.657 17.3431 102 19 102ZM6 99.0001C6 100.657 4.65685 102 3 102C1.34315 102 0 100.657 0 99.0001C0 97.3432 1.34315 96.0001 3 96.0001C4.65685 96.0001 6 97.3432 6 99.0001ZM86 83.0001C86 84.6569 84.6569 86.0001 83 86.0001C81.3431 86.0001 80 84.6569 80 83.0001C80 81.3432 81.3431 80.0001 83 80.0001C84.6569 80.0001 86 81.3432 86 83.0001ZM67 86.0001C68.6569 86.0001 70 84.6569 70 83.0001C70 81.3432 68.6569 80.0001 67 80.0001C65.3431 80.0001 64 81.3432 64 83.0001C64 84.6569 65.3431 86.0001 67 86.0001ZM54 83.0001C54 84.6569 52.6569 86.0001 51 86.0001C49.3431 86.0001 48 84.6569 48 83.0001C48 81.3432 49.3431 80.0001 51 80.0001C52.6569 80.0001 54 81.3432 54 83.0001ZM35 86.0001C36.6569 86.0001 38 84.6569 38 83.0001C38 81.3432 36.6569 80.0001 35 80.0001C33.3431 80.0001 32 81.3432 32 83.0001C32 84.6569 33.3431 86.0001 35 86.0001ZM22 83.0001C22 84.6569 20.6569 86.0001 19 86.0001C17.3431 86.0001 16 84.6569 16 83.0001C16 81.3432 17.3431 80.0001 19 80.0001C20.6569 80.0001 22 81.3432 22 83.0001ZM3 86.0001C4.65685 86.0001 6 84.6569 6 83.0001C6 81.3432 4.65685 80.0001 3 80.0001C1.34315 80.0001 0 81.3432 0 83.0001C0 84.6569 1.34315 86.0001 3 86.0001ZM83 70.0001C84.6569 70.0001 86 68.6569 86 67.0001C86 65.3432 84.6569 64.0001 83 64.0001C81.3431 64.0001 80 65.3432 80 67.0001C80 68.6569 81.3431 70.0001 83 70.0001ZM70 67.0001C70 68.6569 68.6569 70.0001 67 70.0001C65.3431 70.0001 64 68.6569 64 67.0001C64 65.3432 65.3431 64.0001 67 64.0001C68.6569 64.0001 70 65.3432 70 67.0001ZM51 70.0001C52.6569 70.0001 54 68.6569 54 67.0001C54 65.3432 52.6569 64.0001 51 64.0001C49.3431 64.0001 48 65.3432 48 67.0001C48 68.6569 49.3431 70.0001 51 70.0001ZM38 67.0001C38 68.6569 36.6569 70.0001 35 70.0001C33.3431 70.0001 32 68.6569 32 67.0001C32 65.3432 33.3431 64.0001 35 64.0001C36.6569 64.0001 38 65.3432 38 67.0001ZM19 70.0001C20.6569 70.0001 22 68.6569 22 67.0001C22 65.3432 20.6569 64.0001 19 64.0001C17.3431 64.0001 16 65.3432 16 67.0001C16 68.6569 17.3431 70.0001 19 70.0001ZM6 67.0001C6 68.6569 4.65685 70.0001 3 70.0001C1.34315 70.0001 0 68.6569 0 67.0001C0 65.3432 1.34315 64.0001 3 64.0001C4.65685 64.0001 6 65.3432 6 67.0001ZM86 51.0001C86 52.6569 84.6569 54.0001 83 54.0001C81.3431 54.0001 80 52.6569 80 51.0001C80 49.3432 81.3431 48.0001 83 48.0001C84.6569 48.0001 86 49.3432 86 51.0001ZM67 54.0001C68.6569 54.0001 70 52.6569 70 51.0001C70 49.3432 68.6569 48.0001 67 48.0001C65.3431 48.0001 64 49.3432 64 51.0001C64 52.6569 65.3431 54.0001 67 54.0001ZM54 51.0001C54 52.6569 52.6569 54.0001 51 54.0001C49.3431 54.0001 48 52.6569 48 51.0001C48 49.3432 49.3431 48.0001 51 48.0001C52.6569 48.0001 54 49.3432 54 51.0001ZM35 54.0001C36.6569 54.0001 38 52.6569 38 51.0001C38 49.3432 36.6569 48.0001 35 48.0001C33.3431 48.0001 32 49.3432 32 51.0001C32 52.6569 33.3431 54.0001 35 54.0001ZM22 51.0001C22 52.6569 20.6569 54.0001 19 54.0001C17.3431 54.0001 16 52.6569 16 51.0001C16 49.3432 17.3431 48.0001 19 48.0001C20.6569 48.0001 22 49.3432 22 51.0001ZM3 54.0001C4.65685 54.0001 6 52.6569 6 51.0001C6 49.3432 4.65685 48.0001 3 48.0001C1.34315 48.0001 0 49.3432 0 51.0001C0 52.6569 1.34315 54.0001 3 54.0001ZM83 38.0001C84.6569 38.0001 86 36.6569 86 35.0001C86 33.3432 84.6569 32.0001 83 32.0001C81.3431 32.0001 80 33.3432 80 35.0001C80 36.6569 81.3431 38.0001 83 38.0001ZM70 35.0001C70 36.6569 68.6569 38.0001 67 38.0001C65.3431 38.0001 64 36.6569 64 35.0001C64 33.3432 65.3431 32.0001 67 32.0001C68.6569 32.0001 70 33.3432 70 35.0001ZM51 38.0001C52.6569 38.0001 54 36.6569 54 35.0001C54 33.3432 52.6569 32.0001 51 32.0001C49.3431 32.0001 48 33.3432 48 35.0001C48 36.6569 49.3431 38.0001 51 38.0001ZM38 35.0001C38 36.6569 36.6569 38.0001 35 38.0001C33.3431 38.0001 32 36.6569 32 35.0001C32 33.3432 33.3431 32.0001 35 32.0001C36.6569 32.0001 38 33.3432 38 35.0001ZM19 38.0001C20.6569 38.0001 22 36.6569 22 35.0001C22 33.3432 20.6569 32.0001 19 32.0001C17.3431 32.0001 16 33.3432 16 35.0001C16 36.6569 17.3431 38.0001 19 38.0001ZM6 35.0001C6 36.6569 4.65685 38.0001 3 38.0001C1.34315 38.0001 0 36.6569 0 35.0001C0 33.3432 1.34315 32.0001 3 32.0001C4.65685 32.0001 6 33.3432 6 35.0001ZM86 19.0001C86 20.6569 84.6569 22.0001 83 22.0001C81.3431 22.0001 80 20.6569 80 19.0001C80 17.3432 81.3431 16.0001 83 16.0001C84.6569 16.0001 86 17.3432 86 19.0001ZM67 22.0001C68.6569 22.0001 70 20.6569 70 19.0001C70 17.3432 68.6569 16.0001 67 16.0001C65.3431 16.0001 64 17.3432 64 19.0001C64 20.6569 65.3431 22.0001 67 22.0001ZM54 19.0001C54 20.6569 52.6569 22.0001 51 22.0001C49.3431 22.0001 48 20.6569 48 19.0001C48 17.3432 49.3431 16.0001 51 16.0001C52.6569 16.0001 54 17.3432 54 19.0001ZM35 22.0001C36.6569 22.0001 38 20.6569 38 19.0001C38 17.3432 36.6569 16.0001 35 16.0001C33.3431 16.0001 32 17.3432 32 19.0001C32 20.6569 33.3431 22.0001 35 22.0001ZM22 19.0001C22 20.6569 20.6569 22.0001 19 22.0001C17.3431 22.0001 16 20.6569 16 19.0001C16 17.3432 17.3431 16.0001 19 16.0001C20.6569 16.0001 22 17.3432 22 19.0001ZM3 22.0001C4.65685 22.0001 6 20.6569 6 19.0001C6 17.3432 4.65685 16.0001 3 16.0001C1.34315 16.0001 0 17.3432 0 19.0001C0 20.6569 1.34315 22.0001 3 22.0001ZM83 6.00006C84.6569 6.00006 86 4.65692 86 3.00006C86 1.34321 84.6569 6.10352e-05 83 6.10352e-05C81.3431 6.10352e-05 80 1.34321 80 3.00006C80 4.65692 81.3431 6.00006 83 6.00006ZM70 3.00006C70 4.65692 68.6569 6.00006 67 6.00006C65.3431 6.00006 64 4.65692 64 3.00006C64 1.34321 65.3431 6.10352e-05 67 6.10352e-05C68.6569 6.10352e-05 70 1.34321 70 3.00006ZM51 6.00006C52.6569 6.00006 54 4.65692 54 3.00006C54 1.34321 52.6569 6.10352e-05 51 6.10352e-05C49.3431 6.10352e-05 48 1.34321 48 3.00006C48 4.65692 49.3431 6.00006 51 6.00006ZM38 3.00006C38 4.65692 36.6569 6.00006 35 6.00006C33.3431 6.00006 32 4.65692 32 3.00006C32 1.34321 33.3431 6.10352e-05 35 6.10352e-05C36.6569 6.10352e-05 38 1.34321 38 3.00006ZM19 6.00006C20.6569 6.00006 22 4.65692 22 3.00006C22 1.34321 20.6569 6.10352e-05 19 6.10352e-05C17.3431 6.10352e-05 16 1.34321 16 3.00006C16 4.65692 17.3431 6.00006 19 6.00006ZM6 3.00006C6 4.65692 4.65685 6.00006 3 6.00006C1.34315 6.00006 0 4.65692 0 3.00006C0 1.34321 1.34315 6.10352e-05 3 6.10352e-05C4.65685 6.10352e-05 6 1.34321 6 3.00006Z" fill="#74D5DE"/>
</svg>
