<svg width="408" height="98" viewBox="0 0 408 98" fill="none" xmlns="http://www.w3.org/2000/svg">
<path fill-rule="evenodd" clip-rule="evenodd" d="M30.6409 27.187L65.6028 27.2639L48.3303 97.4045L30.6409 27.187Z" fill="white"/>
<path fill-rule="evenodd" clip-rule="evenodd" d="M68.668 28.8452L88.6831 53.8053C88.6831 53.8053 71.7646 51.1667 53.5713 89.3944L68.668 28.8452Z" fill="white"/>
<path fill-rule="evenodd" clip-rule="evenodd" d="M27.7086 28.3057C22.7053 34.5463 7.69409 53.2657 7.69409 53.2657C7.69409 53.2657 24.613 50.6272 42.8061 88.8548L27.7086 28.3057Z" fill="white"/>
<path fill-rule="evenodd" clip-rule="evenodd" d="M36.4111 12.227C36.4111 5.47387 41.8868 0 48.6417 0C55.3981 0 60.8736 5.47387 60.8736 12.227C60.8736 18.9813 55.3981 24.4552 48.6417 24.4552C41.8868 24.4552 36.4111 18.9813 36.4111 12.227V12.227Z" fill="white"/>
<path fill-rule="evenodd" clip-rule="evenodd" d="M79.0796 33.1713C79.0796 28.0274 83.2502 23.8574 88.3954 23.8574C93.5411 23.8574 97.7122 28.0274 97.7122 33.1713C97.7122 38.3152 93.5411 42.4852 88.3954 42.4852C83.2502 42.4852 79.0796 38.3152 79.0796 33.1713Z" fill="white"/>
<path fill-rule="evenodd" clip-rule="evenodd" d="M0 30.4458C0 25.3019 4.17124 21.1318 9.31672 21.1318C14.4611 21.1318 18.6324 25.3019 18.6324 30.4458C18.6324 35.5897 14.4611 39.7586 9.31672 39.7586C4.17124 39.7586 0 35.5897 0 30.4458Z" fill="white"/>
<path d="M129.792 52.856C129.792 52.088 129.68 51.368 129.456 50.696C129.248 50.008 128.928 49.408 128.496 48.896C128.064 48.384 127.512 47.984 126.84 47.696C126.184 47.392 125.416 47.24 124.536 47.24C122.824 47.24 121.472 47.728 120.48 48.704C119.504 49.68 118.88 51.064 118.608 52.856H129.792ZM118.488 56.432C118.584 57.696 118.808 58.792 119.16 59.72C119.512 60.632 119.976 61.392 120.552 62C121.128 62.592 121.808 63.04 122.592 63.344C123.392 63.632 124.272 63.776 125.232 63.776C126.192 63.776 127.016 63.664 127.704 63.44C128.408 63.216 129.016 62.968 129.528 62.696C130.056 62.424 130.512 62.176 130.896 61.952C131.296 61.728 131.68 61.616 132.048 61.616C132.544 61.616 132.912 61.8 133.152 62.168L134.856 64.328C134.2 65.096 133.464 65.744 132.648 66.272C131.832 66.784 130.976 67.2 130.08 67.52C129.2 67.824 128.296 68.04 127.368 68.168C126.456 68.296 125.568 68.36 124.704 68.36C122.992 68.36 121.4 68.08 119.928 67.52C118.456 66.944 117.176 66.104 116.088 65C115 63.88 114.144 62.504 113.52 60.872C112.896 59.224 112.584 57.32 112.584 55.16C112.584 53.48 112.856 51.904 113.4 50.432C113.944 48.944 114.72 47.656 115.728 46.568C116.752 45.464 117.992 44.592 119.448 43.952C120.92 43.312 122.576 42.992 124.416 42.992C125.968 42.992 127.4 43.24 128.712 43.736C130.024 44.232 131.152 44.96 132.096 45.92C133.04 46.864 133.776 48.032 134.304 49.424C134.848 50.8 135.12 52.376 135.12 54.152C135.12 55.048 135.024 55.656 134.832 55.976C134.64 56.28 134.272 56.432 133.728 56.432H118.488ZM152.577 57.488C150.865 57.568 149.425 57.72 148.257 57.944C147.089 58.152 146.153 58.424 145.449 58.76C144.745 59.096 144.241 59.488 143.937 59.936C143.633 60.384 143.481 60.872 143.481 61.4C143.481 62.44 143.785 63.184 144.393 63.632C145.017 64.08 145.825 64.304 146.817 64.304C148.033 64.304 149.081 64.088 149.961 63.656C150.857 63.208 151.729 62.536 152.577 61.64V57.488ZM138.993 46.808C141.825 44.216 145.233 42.92 149.217 42.92C150.657 42.92 151.945 43.16 153.081 43.64C154.217 44.104 155.177 44.76 155.961 45.608C156.745 46.44 157.337 47.44 157.737 48.608C158.153 49.776 158.361 51.056 158.361 52.448V68H155.673C155.113 68 154.681 67.92 154.377 67.76C154.073 67.584 153.833 67.24 153.657 66.728L153.129 64.952C152.505 65.512 151.897 66.008 151.305 66.44C150.713 66.856 150.097 67.208 149.457 67.496C148.817 67.784 148.129 68 147.393 68.144C146.673 68.304 145.873 68.384 144.993 68.384C143.953 68.384 142.993 68.248 142.113 67.976C141.233 67.688 140.473 67.264 139.833 66.704C139.193 66.144 138.697 65.448 138.345 64.616C137.993 63.784 137.817 62.816 137.817 61.712C137.817 61.088 137.921 60.472 138.129 59.864C138.337 59.24 138.673 58.648 139.137 58.088C139.617 57.528 140.233 57 140.985 56.504C141.737 56.008 142.657 55.576 143.745 55.208C144.849 54.84 146.129 54.544 147.585 54.32C149.041 54.08 150.705 53.936 152.577 53.888V52.448C152.577 50.8 152.225 49.584 151.521 48.8C150.817 48 149.801 47.6 148.473 47.6C147.513 47.6 146.713 47.712 146.073 47.936C145.449 48.16 144.897 48.416 144.417 48.704C143.937 48.976 143.497 49.224 143.097 49.448C142.713 49.672 142.281 49.784 141.801 49.784C141.385 49.784 141.033 49.68 140.745 49.472C140.457 49.248 140.225 48.992 140.049 48.704L138.993 46.808ZM178.968 48.176C178.808 48.432 178.64 48.616 178.464 48.728C178.288 48.824 178.064 48.872 177.792 48.872C177.504 48.872 177.192 48.792 176.856 48.632C176.536 48.472 176.16 48.296 175.728 48.104C175.296 47.896 174.8 47.712 174.24 47.552C173.696 47.392 173.048 47.312 172.296 47.312C171.128 47.312 170.208 47.56 169.536 48.056C168.88 48.552 168.552 49.2 168.552 50C168.552 50.528 168.72 50.976 169.056 51.344C169.408 51.696 169.864 52.008 170.424 52.28C171 52.552 171.648 52.8 172.368 53.024C173.088 53.232 173.816 53.464 174.552 53.72C175.304 53.976 176.04 54.272 176.76 54.608C177.48 54.928 178.12 55.344 178.68 55.856C179.256 56.352 179.712 56.952 180.048 57.656C180.4 58.36 180.576 59.208 180.576 60.2C180.576 61.384 180.36 62.48 179.928 63.488C179.512 64.48 178.888 65.344 178.056 66.08C177.224 66.8 176.192 67.368 174.96 67.784C173.744 68.184 172.336 68.384 170.736 68.384C169.888 68.384 169.056 68.304 168.24 68.144C167.44 68 166.664 67.792 165.912 67.52C165.176 67.248 164.488 66.928 163.848 66.56C163.224 66.192 162.672 65.792 162.192 65.36L163.56 63.104C163.736 62.832 163.944 62.624 164.184 62.48C164.424 62.336 164.728 62.264 165.096 62.264C165.464 62.264 165.808 62.368 166.128 62.576C166.464 62.784 166.848 63.008 167.28 63.248C167.712 63.488 168.216 63.712 168.792 63.92C169.384 64.128 170.128 64.232 171.024 64.232C171.728 64.232 172.328 64.152 172.824 63.992C173.336 63.816 173.752 63.592 174.072 63.32C174.408 63.048 174.648 62.736 174.792 62.384C174.952 62.016 175.032 61.64 175.032 61.256C175.032 60.68 174.856 60.208 174.504 59.84C174.168 59.472 173.712 59.152 173.136 58.88C172.576 58.608 171.928 58.368 171.192 58.16C170.472 57.936 169.728 57.696 168.96 57.44C168.208 57.184 167.464 56.888 166.728 56.552C166.008 56.2 165.36 55.76 164.784 55.232C164.224 54.704 163.768 54.056 163.416 53.288C163.08 52.52 162.912 51.592 162.912 50.504C162.912 49.496 163.112 48.536 163.512 47.624C163.912 46.712 164.496 45.92 165.264 45.248C166.048 44.56 167.016 44.016 168.168 43.616C169.336 43.2 170.68 42.992 172.2 42.992C173.896 42.992 175.44 43.272 176.832 43.832C178.224 44.392 179.384 45.128 180.312 46.04L178.968 48.176ZM206.937 43.376L193.521 74.768C193.345 75.184 193.113 75.496 192.825 75.704C192.553 75.928 192.129 76.04 191.553 76.04H187.137L191.745 66.152L181.785 43.376H186.993C187.457 43.376 187.817 43.488 188.073 43.712C188.345 43.936 188.545 44.192 188.673 44.48L193.905 57.248C194.081 57.68 194.225 58.112 194.337 58.544C194.465 58.976 194.585 59.416 194.697 59.864C194.841 59.416 194.985 58.976 195.129 58.544C195.273 58.096 195.433 57.656 195.609 57.224L200.553 44.48C200.681 44.16 200.889 43.896 201.177 43.688C201.481 43.48 201.817 43.376 202.185 43.376H206.937ZM230.497 62.48C231.137 62.48 231.641 62.664 232.009 63.032C232.393 63.384 232.585 63.856 232.585 64.448V68H208.777V66.032C208.777 65.632 208.857 65.216 209.017 64.784C209.193 64.336 209.465 63.936 209.833 63.584L220.369 53.024C221.249 52.128 222.033 51.272 222.721 50.456C223.425 49.64 224.009 48.832 224.473 48.032C224.937 47.232 225.289 46.424 225.529 45.608C225.785 44.776 225.913 43.904 225.913 42.992C225.913 42.16 225.793 41.432 225.553 40.808C225.313 40.168 224.969 39.632 224.521 39.2C224.089 38.768 223.561 38.448 222.937 38.24C222.329 38.016 221.641 37.904 220.873 37.904C220.169 37.904 219.513 38.008 218.905 38.216C218.313 38.408 217.785 38.688 217.321 39.056C216.857 39.408 216.465 39.824 216.145 40.304C215.825 40.784 215.585 41.312 215.425 41.888C215.153 42.624 214.801 43.112 214.369 43.352C213.937 43.592 213.313 43.648 212.497 43.52L209.377 42.968C209.617 41.304 210.081 39.848 210.769 38.6C211.457 37.336 212.313 36.288 213.337 35.456C214.377 34.608 215.561 33.976 216.889 33.56C218.233 33.128 219.673 32.912 221.209 32.912C222.809 32.912 224.273 33.152 225.601 33.632C226.929 34.096 228.065 34.76 229.009 35.624C229.953 36.488 230.689 37.528 231.217 38.744C231.745 39.96 232.009 41.312 232.009 42.8C232.009 44.08 231.817 45.264 231.433 46.352C231.065 47.44 230.561 48.48 229.921 49.472C229.297 50.464 228.561 51.424 227.713 52.352C226.865 53.28 225.977 54.224 225.049 55.184L217.225 63.176C217.977 62.952 218.721 62.784 219.457 62.672C220.209 62.544 220.921 62.48 221.593 62.48H230.497ZM243.653 61.616C244.325 62.432 245.053 63.008 245.837 63.344C246.637 63.68 247.501 63.848 248.429 63.848C249.325 63.848 250.133 63.68 250.853 63.344C251.573 63.008 252.181 62.496 252.677 61.808C253.189 61.12 253.581 60.256 253.853 59.216C254.125 58.16 254.261 56.92 254.261 55.496C254.261 54.056 254.141 52.84 253.901 51.848C253.677 50.84 253.349 50.024 252.917 49.4C252.485 48.776 251.957 48.32 251.333 48.032C250.725 47.744 250.029 47.6 249.245 47.6C248.013 47.6 246.965 47.864 246.101 48.392C245.237 48.904 244.421 49.632 243.653 50.576V61.616ZM243.341 46.736C244.349 45.6 245.493 44.68 246.773 43.976C248.053 43.272 249.557 42.92 251.285 42.92C252.629 42.92 253.853 43.2 254.957 43.76C256.077 44.32 257.037 45.136 257.837 46.208C258.653 47.264 259.277 48.576 259.709 50.144C260.157 51.696 260.381 53.48 260.381 55.496C260.381 57.336 260.133 59.04 259.637 60.608C259.141 62.176 258.429 63.536 257.501 64.688C256.589 65.84 255.477 66.744 254.165 67.4C252.869 68.04 251.413 68.36 249.797 68.36C248.421 68.36 247.245 68.152 246.269 67.736C245.293 67.304 244.421 66.712 243.653 65.96V76.04H237.725V43.376H241.349C242.117 43.376 242.621 43.736 242.861 44.456L243.341 46.736ZM280.87 52.856C280.87 52.088 280.758 51.368 280.534 50.696C280.326 50.008 280.006 49.408 279.574 48.896C279.142 48.384 278.59 47.984 277.918 47.696C277.262 47.392 276.494 47.24 275.614 47.24C273.902 47.24 272.55 47.728 271.558 48.704C270.582 49.68 269.958 51.064 269.686 52.856H280.87ZM269.566 56.432C269.662 57.696 269.886 58.792 270.238 59.72C270.59 60.632 271.054 61.392 271.63 62C272.206 62.592 272.886 63.04 273.67 63.344C274.47 63.632 275.35 63.776 276.31 63.776C277.27 63.776 278.094 63.664 278.782 63.44C279.486 63.216 280.094 62.968 280.606 62.696C281.134 62.424 281.59 62.176 281.974 61.952C282.374 61.728 282.758 61.616 283.126 61.616C283.622 61.616 283.99 61.8 284.23 62.168L285.934 64.328C285.278 65.096 284.542 65.744 283.726 66.272C282.91 66.784 282.054 67.2 281.158 67.52C280.278 67.824 279.374 68.04 278.446 68.168C277.534 68.296 276.646 68.36 275.782 68.36C274.07 68.36 272.478 68.08 271.006 67.52C269.534 66.944 268.254 66.104 267.166 65C266.078 63.88 265.222 62.504 264.598 60.872C263.974 59.224 263.662 57.32 263.662 55.16C263.662 53.48 263.934 51.904 264.478 50.432C265.022 48.944 265.798 47.656 266.806 46.568C267.83 45.464 269.07 44.592 270.526 43.952C271.998 43.312 273.654 42.992 275.494 42.992C277.046 42.992 278.478 43.24 279.79 43.736C281.102 44.232 282.23 44.96 283.174 45.92C284.118 46.864 284.854 48.032 285.382 49.424C285.926 50.8 286.198 52.376 286.198 54.152C286.198 55.048 286.102 55.656 285.91 55.976C285.718 56.28 285.35 56.432 284.806 56.432H269.566ZM296.239 47.648C297.007 46.176 297.919 45.024 298.975 44.192C300.031 43.344 301.279 42.92 302.719 42.92C303.855 42.92 304.767 43.168 305.455 43.664L305.071 48.104C304.991 48.392 304.871 48.6 304.711 48.728C304.567 48.84 304.367 48.896 304.111 48.896C303.871 48.896 303.511 48.856 303.031 48.776C302.567 48.696 302.111 48.656 301.663 48.656C301.007 48.656 300.423 48.752 299.911 48.944C299.399 49.136 298.935 49.416 298.519 49.784C298.119 50.136 297.759 50.568 297.439 51.08C297.135 51.592 296.847 52.176 296.575 52.832V68H290.647V43.376H294.127C294.735 43.376 295.159 43.488 295.399 43.712C295.639 43.92 295.799 44.304 295.879 44.864L296.239 47.648ZM310.281 68V47.84L308.145 47.504C307.681 47.408 307.305 47.248 307.017 47.024C306.745 46.784 306.609 46.448 306.609 46.016V43.592H310.281V41.768C310.281 40.36 310.489 39.096 310.905 37.976C311.337 36.856 311.945 35.904 312.729 35.12C313.529 34.336 314.497 33.736 315.633 33.32C316.769 32.904 318.049 32.696 319.473 32.696C320.609 32.696 321.665 32.848 322.641 33.152L322.521 36.128C322.505 36.352 322.441 36.536 322.329 36.68C322.217 36.808 322.065 36.912 321.873 36.992C321.697 37.056 321.489 37.104 321.249 37.136C321.009 37.152 320.753 37.16 320.481 37.16C319.777 37.16 319.145 37.24 318.585 37.4C318.041 37.544 317.577 37.808 317.193 38.192C316.809 38.56 316.513 39.056 316.305 39.68C316.113 40.288 316.017 41.048 316.017 41.96V43.592H322.425V47.816H316.209V68H310.281ZM335.996 42.992C337.82 42.992 339.476 43.288 340.964 43.88C342.468 44.472 343.748 45.312 344.804 46.4C345.876 47.488 346.7 48.816 347.276 50.384C347.852 51.952 348.14 53.704 348.14 55.64C348.14 57.592 347.852 59.352 347.276 60.92C346.7 62.488 345.876 63.824 344.804 64.928C343.748 66.032 342.468 66.88 340.964 67.472C339.476 68.064 337.82 68.36 335.996 68.36C334.156 68.36 332.484 68.064 330.98 67.472C329.476 66.88 328.188 66.032 327.116 64.928C326.06 63.824 325.236 62.488 324.644 60.92C324.068 59.352 323.78 57.592 323.78 55.64C323.78 53.704 324.068 51.952 324.644 50.384C325.236 48.816 326.06 47.488 327.116 46.4C328.188 45.312 329.476 44.472 330.98 43.88C332.484 43.288 334.156 42.992 335.996 42.992ZM335.996 63.8C338.044 63.8 339.556 63.112 340.532 61.736C341.524 60.36 342.02 58.344 342.02 55.688C342.02 53.032 341.524 51.008 340.532 49.616C339.556 48.224 338.044 47.528 335.996 47.528C333.916 47.528 332.372 48.232 331.364 49.64C330.372 51.032 329.876 53.048 329.876 55.688C329.876 58.328 330.372 60.344 331.364 61.736C332.372 63.112 333.916 63.8 335.996 63.8ZM358.254 47.648C359.022 46.176 359.934 45.024 360.99 44.192C362.046 43.344 363.294 42.92 364.734 42.92C365.87 42.92 366.782 43.168 367.47 43.664L367.086 48.104C367.006 48.392 366.886 48.6 366.726 48.728C366.582 48.84 366.382 48.896 366.126 48.896C365.886 48.896 365.526 48.856 365.046 48.776C364.582 48.696 364.126 48.656 363.678 48.656C363.022 48.656 362.438 48.752 361.926 48.944C361.414 49.136 360.95 49.416 360.534 49.784C360.134 50.136 359.774 50.568 359.454 51.08C359.15 51.592 358.862 52.176 358.59 52.832V68H352.662V43.376H356.142C356.75 43.376 357.174 43.488 357.414 43.712C357.654 43.92 357.814 44.304 357.894 44.864L358.254 47.648ZM370.569 68V43.376H374.193C374.961 43.376 375.465 43.736 375.705 44.456L376.089 46.28C376.521 45.8 376.969 45.36 377.433 44.96C377.913 44.56 378.417 44.216 378.945 43.928C379.489 43.64 380.065 43.416 380.673 43.256C381.297 43.08 381.977 42.992 382.713 42.992C384.265 42.992 385.537 43.416 386.529 44.264C387.537 45.096 388.289 46.208 388.785 47.6C389.169 46.784 389.649 46.088 390.225 45.512C390.801 44.92 391.433 44.44 392.121 44.072C392.809 43.704 393.537 43.432 394.305 43.256C395.089 43.08 395.873 42.992 396.657 42.992C398.017 42.992 399.225 43.2 400.281 43.616C401.337 44.032 402.225 44.64 402.945 45.44C403.665 46.24 404.209 47.216 404.577 48.368C404.961 49.52 405.153 50.84 405.153 52.328V68H399.225V52.328C399.225 50.76 398.881 49.584 398.193 48.8C397.505 48 396.497 47.6 395.169 47.6C394.561 47.6 393.993 47.704 393.465 47.912C392.953 48.12 392.497 48.424 392.097 48.824C391.713 49.208 391.409 49.696 391.185 50.288C390.961 50.88 390.849 51.56 390.849 52.328V68H384.897V52.328C384.897 50.68 384.561 49.48 383.889 48.728C383.233 47.976 382.265 47.6 380.985 47.6C380.121 47.6 379.313 47.816 378.561 48.248C377.825 48.664 377.137 49.24 376.497 49.976V68H370.569Z" fill="white"/>
</svg>
