<svg width="42" height="42" viewBox="0 0 42 42" fill="none" xmlns="http://www.w3.org/2000/svg">
<path fill-rule="evenodd" clip-rule="evenodd" d="M13.1705 11.7228L28.1983 11.7559L20.774 42L13.1705 11.7228Z" fill="#1E266D"/>
<path fill-rule="evenodd" clip-rule="evenodd" d="M29.5158 12.4379L38.1189 23.2005C38.1189 23.2005 30.8468 22.0627 23.0267 38.5462L29.5158 12.4379Z" fill="#1E266D"/>
<path fill-rule="evenodd" clip-rule="evenodd" d="M11.91 12.2053C9.75937 14.8962 3.30707 22.9679 3.30707 22.9679C3.30707 22.9679 10.5794 21.8302 18.3994 38.3137L11.91 12.2053Z" fill="#1E266D"/>
<path fill-rule="evenodd" clip-rule="evenodd" d="M15.6508 5.2722C15.6508 2.36029 18.0044 0 20.9079 0C23.812 0 26.1655 2.36029 26.1655 5.2722C26.1655 8.1846 23.812 10.5449 20.9079 10.5449C18.0044 10.5449 15.6508 8.1846 15.6508 5.2722Z" fill="#1E266D"/>
<path fill-rule="evenodd" clip-rule="evenodd" d="M33.9911 14.3031C33.9911 12.085 35.7838 10.287 37.9953 10.287C40.2071 10.287 42 12.085 42 14.3031C42 16.5211 40.2071 18.3192 37.9953 18.3192C35.7838 18.3192 33.9911 16.5211 33.9911 14.3031Z" fill="#1E266D"/>
<path fill-rule="evenodd" clip-rule="evenodd" d="M0 13.128C0 10.91 1.79294 9.11194 4.00464 9.11194C6.21588 9.11194 8.00884 10.91 8.00884 13.128C8.00884 15.3461 6.21588 17.1437 4.00464 17.1437C1.79294 17.1437 0 15.3461 0 13.128Z" fill="#1E266D"/>
</svg>
