<svg width="98" height="98" viewBox="0 0 98 98" fill="none" xmlns="http://www.w3.org/2000/svg">
<path fill-rule="evenodd" clip-rule="evenodd" d="M30.6406 27.1868L65.6025 27.2637L48.33 97.4043L30.6406 27.1868Z" fill="white"/>
<path fill-rule="evenodd" clip-rule="evenodd" d="M68.6679 28.8452L88.683 53.8053C88.683 53.8053 71.7646 51.1667 53.5713 89.3944L68.6679 28.8452Z" fill="white"/>
<path fill-rule="evenodd" clip-rule="evenodd" d="M27.7089 28.3059C22.7055 34.5465 7.69434 53.266 7.69434 53.266C7.69434 53.266 24.6133 50.6274 42.8064 88.8551L27.7089 28.3059Z" fill="white"/>
<path fill-rule="evenodd" clip-rule="evenodd" d="M36.4111 12.227C36.4111 5.47387 41.8868 0 48.6417 0C55.3981 0 60.8736 5.47387 60.8736 12.227C60.8736 18.9813 55.3981 24.4552 48.6417 24.4552C41.8868 24.4552 36.4111 18.9813 36.4111 12.227V12.227Z" fill="white"/>
<path fill-rule="evenodd" clip-rule="evenodd" d="M79.0796 33.1711C79.0796 28.0271 83.2502 23.8572 88.3954 23.8572C93.5411 23.8572 97.7122 28.0271 97.7122 33.1711C97.7122 38.315 93.5411 42.485 88.3954 42.485C83.2502 42.485 79.0796 38.315 79.0796 33.1711Z" fill="white"/>
<path fill-rule="evenodd" clip-rule="evenodd" d="M0 30.4458C0 25.3019 4.17124 21.1318 9.31672 21.1318C14.4611 21.1318 18.6324 25.3019 18.6324 30.4458C18.6324 35.5897 14.4611 39.7586 9.31672 39.7586C4.17124 39.7586 0 35.5897 0 30.4458Z" fill="white"/>
</svg>
