<?xml version="1.0" encoding="UTF-8"?>
<svg clip-rule="evenodd" fill-rule="evenodd" stroke-linecap="round" stroke-linejoin="round" version="1.1" viewBox="0 0 272.88 200" xml:space="preserve" xmlns="http://www.w3.org/2000/svg" xmlns:vectornator="http://vectornator.io"><g transform="matrix(1.5 0 0 1.5 -32.324 -36.326)" fill="#98ccf0" vectornator:layerName="Layer 2"><g fill="#98ccf0"><g transform="matrix(1.1685 0 0 1.1685 -18.957 -15.314)"><g transform="matrix(.66667 0 0 .66667 37.503 32.517)" clip-rule="evenodd" fill-rule="evenodd" stroke-linecap="round" stroke-linejoin="round" vectornator:layerName="Layer 1"><path d="m108.02 130.16-30.644-59.151s20.728 37.863-4.1795 53.743" fill="#98ccf0"/><path d="m118.02 130.38 33.887-5.579s-23.952-14.562-4.491-52.396" fill="#98ccf0"/><path d="m112.99 129.15 29.667-57.702s-27.626 42.732-58.927-3.8105" fill="#47a4e4"/><path d="m105.91 77.096c0-3.9459 3.199-7.1448 7.145-7.1448s7.144 3.1989 7.144 7.1448c0 3.946-3.198 7.1448-7.144 7.1448s-7.145-3.1988-7.145-7.1448z" fill="#47a4e4"/><path d="m65.762 105.27c0-3.945 3.1988-7.1443 7.1448-7.1443s7.1448 3.1993 7.1448 7.1443c0 3.946-3.1988 7.145-7.1448 7.145s-7.1448-3.199-7.1448-7.145z" fill="#98ccf0"/><path d="m144.97 105.27c0-3.945 3.199-7.1443 7.145-7.1443s7.145 3.1993 7.145 7.1443c0 3.946-3.199 7.145-7.145 7.145s-7.145-3.199-7.145-7.145z" fill="#98ccf0"/></g><path d="m112.51 33.831c-42.992 0-77.844 34.852-77.844 77.844 0 1.681 0.1449 3.313 0.25 4.968 2.458-40.777 36.23-73.125 77.624-73.125 41.247 0 74.922 32.117 77.594 72.688 0.088-1.512 0.219-2.998 0.219-4.531 0-42.993-34.852-77.844-77.844-77.844z" clip-rule="evenodd" fill="#98ccf0" fill-rule="evenodd" stroke-linecap="round" stroke-linejoin="round"/><g transform="translate(0 -13.333)"><g fill="#98ccf0"><path d="m47.734 151.68h-5.7363c0.0072 0.666 0.1414 1.253 0.4028 1.762 0.2614 0.508 0.6088 0.891 1.042 1.149 0.4333 0.258 0.9113 0.387 1.4341 0.387 0.3509 0 0.6714-0.041 0.9614-0.124 0.2901-0.082 0.5712-0.211 0.8433-0.386 0.2721-0.176 0.5228-0.364 0.7519-0.564 0.2292-0.201 0.5264-0.473 0.8916-0.817 0.1504-0.129 0.3653-0.193 0.6446-0.193 0.3008 0 0.5443 0.082 0.7304 0.247 0.1862 0.165 0.2793 0.398 0.2793 0.698 0 0.265-0.1038 0.575-0.3115 0.93-0.2077 0.354-0.521 0.694-0.9399 1.02-0.419 0.326-0.9453 0.596-1.5791 0.811s-1.3625 0.322-2.1861 0.322c-1.8834 0-3.3479-0.537-4.3935-1.611s-1.5684-2.532-1.5684-4.372c0-0.867 0.1289-1.67 0.3867-2.412 0.2579-0.741 0.6338-1.376 1.128-1.906 0.4941-0.53 1.1028-0.937 1.8262-1.22 0.7233-0.283 1.5253-0.424 2.4062-0.424 1.1458 0 2.1287 0.242 2.9487 0.725 0.82 0.484 1.4341 1.108 1.8423 1.875 0.4082 0.766 0.6123 1.547 0.6123 2.341 0 0.738-0.2112 1.216-0.6338 1.435-0.4225 0.218-1.0169 0.327-1.7832 0.327zm-5.7363-1.665h5.3174c-0.0716-1.002-0.342-1.753-0.8111-2.25-0.469-0.498-1.0867-0.747-1.853-0.747-0.7304 0-1.3302 0.252-1.7993 0.757s-0.7537 1.252-0.854 2.24z"/><path d="m60.034 155.27c-0.709 0.551-1.3947 0.965-2.0571 1.241-0.6624 0.275-1.4054 0.413-2.229 0.413-0.752 0-1.4126-0.148-1.9819-0.445-0.5694-0.298-1.008-0.7-1.316-1.209-0.3079-0.508-0.4619-1.06-0.4619-1.654 0-0.802 0.2543-1.486 0.7627-2.052 0.5085-0.566 1.2067-0.945 2.0948-1.139 0.1862-0.043 0.6481-0.139 1.3857-0.29 0.7376-0.15 1.3696-0.288 1.896-0.413 0.5264-0.126 1.0975-0.278 1.7134-0.457-0.0358-0.773-0.1916-1.341-0.4673-1.702-0.2757-0.362-0.8469-0.543-1.7134-0.543-0.7448 0-1.3052 0.104-1.6811 0.312-0.376 0.207-0.6983 0.519-0.9668 0.934-0.2686 0.416-0.4584 0.689-0.5694 0.822-0.111 0.132-0.3491 0.199-0.7143 0.199-0.3295 0-0.6141-0.106-0.854-0.317-0.2399-0.212-0.3599-0.482-0.3599-0.811 0-0.516 0.1826-1.017 0.5479-1.504 0.3652-0.487 0.9345-0.888 1.708-1.203 0.7734-0.315 1.7366-0.473 2.8896-0.473 1.2891 0 2.3024 0.152 3.04 0.457 0.7377 0.304 1.2587 0.786 1.563 1.444 0.3044 0.659 0.4566 1.533 0.4566 2.622 0 0.687-0.0018 1.271-0.0054 1.75-0.0036 0.48-0.0089 1.014-0.0161 1.601 0 0.551 0.0913 1.126 0.2739 1.724s0.2739 0.983 0.2739 1.155c0 0.301-0.1414 0.575-0.4243 0.822-0.2828 0.247-0.6033 0.37-0.9614 0.37-0.3008 0-0.598-0.141-0.8916-0.424s-0.6051-0.693-0.9346-1.23zm-0.1933-4.243c-0.4297 0.157-1.0546 0.324-1.8745 0.499-0.82 0.176-1.3876 0.305-1.7027 0.387s-0.6159 0.244-0.9023 0.484c-0.2865 0.239-0.4297 0.574-0.4297 1.004 0 0.444 0.1683 0.822 0.5049 1.133 0.3366 0.312 0.777 0.468 1.3213 0.468 0.58 0 1.1154-0.128 1.6059-0.382 0.4906-0.254 0.8504-0.582 1.0796-0.983 0.265-0.444 0.3975-1.174 0.3975-2.191z"/><path d="m75.137 153.08c0 0.81-0.1969 1.503-0.5908 2.079-0.3939 0.577-0.9757 1.013-1.7456 1.311-0.7698 0.297-1.7062 0.445-2.8091 0.445-1.0527 0-1.955-0.161-2.707-0.483-0.7519-0.322-1.307-0.725-1.665-1.209-0.3581-0.483-0.5371-0.968-0.5371-1.455 0-0.322 0.1145-0.598 0.3437-0.827s0.5192-0.344 0.8701-0.344c0.308 0 0.5443 0.075 0.709 0.226 0.1647 0.15 0.3223 0.361 0.4727 0.633 0.3008 0.523 0.6606 0.913 1.0796 1.171 0.4189 0.258 0.99 0.387 1.7133 0.387 0.5873 0 1.0689-0.131 1.4449-0.392 0.3759-0.261 0.5639-0.56 0.5639-0.897 0-0.516-0.1951-0.892-0.5854-1.128s-1.0331-0.462-1.9282-0.677c-1.0098-0.25-1.8316-0.514-2.4654-0.789-0.6338-0.276-1.1404-0.639-1.52-1.091-0.3796-0.451-0.5693-1.006-0.5693-1.665 0-0.587 0.1754-1.142 0.5263-1.665s0.8684-0.94 1.5523-1.251c0.6839-0.312 1.5093-0.467 2.4761-0.467 0.7591 0 1.4412 0.078 2.0463 0.236 0.6052 0.157 1.1101 0.369 1.5147 0.634s0.7126 0.558 0.9238 0.881c0.2113 0.322 0.3169 0.637 0.3169 0.945 0 0.336-0.1128 0.612-0.3384 0.827s-0.546 0.322-0.9614 0.322c-0.3008 0-0.5568-0.086-0.7681-0.258-0.2112-0.171-0.4529-0.429-0.7251-0.773-0.222-0.286-0.4834-0.516-0.7841-0.688-0.3008-0.171-0.709-0.257-1.2246-0.257-0.53 0-0.9704 0.112-1.3213 0.338s-0.5264 0.507-0.5264 0.843c0 0.308 0.1289 0.561 0.3867 0.758s0.6052 0.359 1.042 0.488c0.4369 0.129 1.0384 0.287 1.8047 0.473 0.9095 0.222 1.6525 0.487 2.229 0.795s1.0133 0.671 1.3105 1.09 0.4458 0.897 0.4458 1.434z"/><path d="m80.326 157.29 0.2686-0.656-3.6094-9.088c-0.222-0.522-0.333-0.902-0.333-1.138 0-0.251 0.0645-0.484 0.1934-0.698 0.1289-0.215 0.3061-0.387 0.5317-0.516s0.4601-0.193 0.7036-0.193c0.4225 0 0.7412 0.134 0.9561 0.402 0.2148 0.269 0.4046 0.654 0.5693 1.155l2.4814 7.219 2.3526-6.714c0.1862-0.544 0.3545-0.97 0.5049-1.278s0.3097-0.516 0.478-0.623c0.1683-0.108 0.4064-0.161 0.7143-0.161 0.2221 0 0.4351 0.059 0.6392 0.177s0.3617 0.277 0.4727 0.478c0.111 0.2 0.1665 0.412 0.1665 0.634-0.0287 0.136-0.0752 0.329-0.1397 0.58-0.0644 0.25-0.1432 0.505-0.2363 0.762l-3.8242 10.012c-0.3295 0.881-0.6517 1.572-0.9668 2.073-0.3151 0.502-0.7323 0.887-1.2515 1.155-0.5192 0.269-1.2192 0.403-2.1001 0.403-0.8594 0-1.5039-0.093-1.9336-0.279-0.4297-0.187-0.6445-0.527-0.6445-1.021 0-0.336 0.102-0.596 0.3061-0.779 0.2041-0.182 0.5067-0.274 0.9078-0.274 0.1575 0 0.3115 0.022 0.4619 0.065 0.1862 0.043 0.3473 0.064 0.4834 0.064 0.3366 0 0.6015-0.05 0.7949-0.15s0.367-0.274 0.521-0.521 0.3312-0.611 0.5317-1.09z"/></g><g fill="#47a4e4"><path d="m92.937 154.12h5.6074c0.5586 0 0.9847 0.114 1.2783 0.343 0.2933 0.23 0.4403 0.541 0.4403 0.935 0 0.351-0.116 0.648-0.349 0.892-0.2327 0.243-0.5854 0.365-1.0581 0.365h-7.9063c-0.5371 0-0.956-0.149-1.2568-0.446s-0.4512-0.646-0.4512-1.047c0-0.258 0.0967-0.6 0.2901-1.026 0.1933-0.426 0.4046-0.761 0.6338-1.005 0.9524-0.988 1.8118-1.835 2.5781-2.54 0.7663-0.706 1.3141-1.169 1.6435-1.391 0.5873-0.416 1.0761-0.833 1.4664-1.252s0.6875-0.848 0.8916-1.289c0.2041-0.44 0.3061-0.872 0.3061-1.294 0-0.459-0.1092-0.869-0.3276-1.23-0.2184-0.362-0.5157-0.643-0.8916-0.843-0.376-0.201-0.786-0.301-1.23-0.301-0.9382 0-1.6758 0.412-2.2129 1.235-0.0716 0.108-0.1916 0.401-0.3599 0.881s-0.358 0.849-0.5693 1.106c-0.2113 0.258-0.521 0.387-0.9292 0.387-0.3581 0-0.6553-0.118-0.8916-0.354-0.2363-0.237-0.3545-0.559-0.3545-0.967 0-0.494 0.111-1.01 0.333-1.547s0.5532-1.024 0.9937-1.461c0.4404-0.437 0.999-0.79 1.6758-1.058 0.6767-0.269 1.4698-0.403 2.3793-0.403 1.0957 0 2.0303 0.172 2.8038 0.516 0.5013 0.229 0.9417 0.544 1.3212 0.945 0.3796 0.401 0.675 0.865 0.8863 1.391 0.2112 0.526 0.3169 1.073 0.3169 1.638 0 0.888-0.2202 1.696-0.6607 2.423-0.4404 0.727-0.8898 1.296-1.3481 1.708-0.4584 0.411-1.2264 1.058-2.3042 1.939s-1.8172 1.564-2.2183 2.051c-0.1719 0.194-0.3473 0.427-0.5263 0.699z"/><path d="m105.32 146.64v0.355c0.551-0.681 1.124-1.18 1.718-1.499 0.595-0.319 1.268-0.478 2.02-0.478 0.902 0 1.733 0.233 2.492 0.698 0.759 0.466 1.359 1.146 1.799 2.041 0.441 0.895 0.661 1.955 0.661 3.18 0 0.902-0.127 1.731-0.381 2.487-0.254 0.755-0.604 1.389-1.048 1.901s-0.968 0.906-1.573 1.182c-0.605 0.275-1.255 0.413-1.95 0.413-0.838 0-1.542-0.168-2.111-0.505-0.569-0.336-1.112-0.83-1.627-1.482v4.404c0 1.289-0.469 1.934-1.408 1.934-0.551 0-0.916-0.167-1.095-0.5s-0.269-0.818-0.269-1.455v-12.654c0-0.559 0.122-0.976 0.365-1.252 0.244-0.276 0.577-0.413 0.999-0.413 0.416 0 0.754 0.141 1.016 0.424 0.261 0.283 0.392 0.689 0.392 1.219zm5.747 4.265c0-0.774-0.118-1.438-0.355-1.993-0.236-0.555-0.564-0.981-0.983-1.278s-0.882-0.446-1.391-0.446c-0.809 0-1.491 0.319-2.046 0.956s-0.833 1.576-0.833 2.814c0 1.168 0.276 2.075 0.827 2.724 0.552 0.648 1.236 0.972 2.052 0.972 0.487 0 0.938-0.142 1.354-0.425 0.415-0.282 0.748-0.707 0.999-1.273 0.25-0.565 0.376-1.249 0.376-2.051z"/><path d="m124.55 151.68h-5.736c7e-3 0.666 0.141 1.253 0.403 1.762 0.261 0.508 0.608 0.891 1.042 1.149 0.433 0.258 0.911 0.387 1.434 0.387 0.351 0 0.671-0.041 0.961-0.124 0.29-0.082 0.571-0.211 0.843-0.386 0.273-0.176 0.523-0.364 0.752-0.564 0.23-0.201 0.527-0.473 0.892-0.817 0.15-0.129 0.365-0.193 0.645-0.193 0.3 0 0.544 0.082 0.73 0.247s0.279 0.398 0.279 0.698c0 0.265-0.104 0.575-0.311 0.93-0.208 0.354-0.521 0.694-0.94 1.02s-0.945 0.596-1.579 0.811-1.363 0.322-2.186 0.322c-1.884 0-3.348-0.537-4.394-1.611-1.045-1.074-1.568-2.532-1.568-4.372 0-0.867 0.129-1.67 0.387-2.412 0.257-0.741 0.633-1.376 1.127-1.906 0.495-0.53 1.103-0.937 1.827-1.22 0.723-0.283 1.525-0.424 2.406-0.424 1.146 0 2.129 0.242 2.949 0.725 0.82 0.484 1.434 1.108 1.842 1.875 0.408 0.766 0.612 1.547 0.612 2.341 0 0.738-0.211 1.216-0.634 1.435-0.422 0.218-1.017 0.327-1.783 0.327zm-5.736-1.665h5.317c-0.071-1.002-0.342-1.753-0.811-2.25-0.469-0.498-1.087-0.747-1.853-0.747-0.73 0-1.33 0.252-1.799 0.757s-0.754 1.252-0.854 2.24z"/><path d="m132.35 152.69v2.449c0 0.595-0.14 1.04-0.419 1.338-0.279 0.297-0.634 0.445-1.063 0.445-0.423 0-0.77-0.15-1.042-0.451-0.273-0.301-0.409-0.745-0.409-1.332v-8.164c0-1.318 0.477-1.976 1.429-1.976 0.487 0 0.838 0.153 1.053 0.461s0.333 0.763 0.354 1.365c0.351-0.602 0.711-1.057 1.08-1.365s0.861-0.461 1.477-0.461 1.214 0.153 1.794 0.461 0.87 0.717 0.87 1.225c0 0.358-0.123 0.654-0.371 0.886-0.247 0.233-0.513 0.349-0.8 0.349-0.107 0-0.367-0.066-0.779-0.198-0.411-0.133-0.775-0.199-1.09-0.199-0.43 0-0.781 0.113-1.053 0.338-0.272 0.226-0.483 0.561-0.633 1.005-0.151 0.444-0.255 0.972-0.312 1.584s-0.086 1.359-0.086 2.24z"/><path d="m138.84 145.25h0.699v-0.881c0-0.916 0.116-1.645 0.349-2.186 0.232-0.54 0.626-0.934 1.181-1.181s1.316-0.371 2.283-0.371c1.712 0 2.567 0.419 2.567 1.257 0 0.272-0.089 0.505-0.268 0.698-0.179 0.194-0.39 0.29-0.634 0.29-0.115 0-0.311-0.021-0.591-0.064-0.279-0.043-0.515-0.065-0.709-0.065-0.53 0-0.87 0.156-1.02 0.468-0.151 0.311-0.226 0.757-0.226 1.337v0.698h0.72c1.117 0 1.676 0.337 1.676 1.01 0 0.48-0.149 0.784-0.446 0.913s-0.707 0.194-1.23 0.194h-0.72v7.766c0 0.58-0.138 1.022-0.413 1.327-0.276 0.304-0.632 0.456-1.069 0.456-0.416 0-0.761-0.152-1.037-0.456-0.276-0.305-0.413-0.747-0.413-1.327v-7.766h-0.806c-0.437 0-0.774-0.099-1.01-0.296s-0.354-0.453-0.354-0.768c0-0.702 0.49-1.053 1.471-1.053z"/><path d="m157.09 150.96c0 0.874-0.136 1.68-0.408 2.417-0.272 0.738-0.666 1.372-1.182 1.902-0.515 0.53-1.131 0.936-1.847 1.219s-1.522 0.424-2.417 0.424c-0.888 0-1.687-0.143-2.396-0.429-0.709-0.287-1.323-0.697-1.842-1.23-0.519-0.534-0.913-1.164-1.182-1.891-0.268-0.727-0.402-1.531-0.402-2.412 0-0.888 0.136-1.7 0.408-2.438s0.662-1.368 1.171-1.891c0.508-0.522 1.124-0.925 1.847-1.208 0.724-0.283 1.522-0.424 2.396-0.424 0.888 0 1.693 0.143 2.417 0.429 0.723 0.287 1.343 0.695 1.858 1.225 0.516 0.53 0.908 1.16 1.176 1.89 0.269 0.731 0.403 1.537 0.403 2.417zm-2.943 0c0-1.196-0.263-2.127-0.79-2.793-0.526-0.666-1.233-0.999-2.121-0.999-0.573 0-1.078 0.149-1.515 0.446s-0.773 0.736-1.01 1.316c-0.236 0.58-0.354 1.257-0.354 2.03 0 0.767 0.116 1.436 0.349 2.009s0.566 1.012 0.999 1.316c0.433 0.305 0.944 0.457 1.531 0.457 0.888 0 1.595-0.335 2.121-1.005 0.527-0.669 0.79-1.595 0.79-2.777z"/><path d="m162.31 152.69v2.449c0 0.595-0.14 1.04-0.419 1.338-0.279 0.297-0.634 0.445-1.063 0.445-0.423 0-0.77-0.15-1.042-0.451-0.273-0.301-0.409-0.745-0.409-1.332v-8.164c0-1.318 0.477-1.976 1.429-1.976 0.487 0 0.838 0.153 1.053 0.461s0.333 0.763 0.354 1.365c0.351-0.602 0.711-1.057 1.08-1.365s0.861-0.461 1.477-0.461 1.214 0.153 1.794 0.461 0.87 0.717 0.87 1.225c0 0.358-0.124 0.654-0.371 0.886-0.247 0.233-0.513 0.349-0.8 0.349-0.107 0-0.367-0.066-0.779-0.198-0.411-0.133-0.775-0.199-1.09-0.199-0.43 0-0.781 0.113-1.053 0.338-0.272 0.226-0.483 0.561-0.634 1.005-0.15 0.444-0.254 0.972-0.311 1.584s-0.086 1.359-0.086 2.24z"/><path d="m178.79 151.17v3.9c0 0.616-0.14 1.077-0.419 1.385-0.28 0.308-0.649 0.462-1.107 0.462-0.444 0-0.804-0.154-1.079-0.462-0.276-0.308-0.414-0.769-0.414-1.385v-4.673c0-0.738-0.025-1.311-0.075-1.719s-0.186-0.743-0.408-1.004c-0.222-0.262-0.573-0.392-1.053-0.392-0.96 0-1.592 0.329-1.896 0.988-0.305 0.659-0.457 1.604-0.457 2.836v3.964c0 0.608-0.138 1.069-0.413 1.38-0.276 0.312-0.639 0.467-1.091 0.467-0.444 0-0.807-0.155-1.09-0.467-0.283-0.311-0.424-0.772-0.424-1.38v-8.39c0-0.551 0.127-0.97 0.381-1.257 0.254-0.286 0.589-0.429 1.004-0.429 0.402 0 0.736 0.134 1.005 0.402 0.268 0.269 0.403 0.64 0.403 1.112v0.279c0.508-0.608 1.052-1.056 1.633-1.342 0.58-0.287 1.224-0.43 1.933-0.43 0.738 0 1.372 0.147 1.901 0.44 0.53 0.294 0.967 0.738 1.311 1.332 0.494-0.601 1.024-1.047 1.59-1.337s1.192-0.435 1.88-0.435c0.802 0 1.493 0.158 2.073 0.473s1.013 0.766 1.3 1.353c0.25 0.53 0.376 1.364 0.376 2.503v5.726c0 0.616-0.14 1.077-0.419 1.385s-0.648 0.462-1.107 0.462c-0.444 0-0.807-0.155-1.09-0.467-0.283-0.311-0.424-0.772-0.424-1.38v-4.931c0-0.63-0.027-1.135-0.081-1.515-0.054-0.379-0.199-0.698-0.435-0.956-0.236-0.257-0.594-0.386-1.074-0.386-0.387 0-0.754 0.114-1.101 0.343-0.348 0.23-0.618 0.537-0.811 0.924-0.215 0.494-0.322 1.368-0.322 2.621z"/></g></g></g></g></g></svg>
