<?xml version="1.0" encoding="UTF-8"?>
<svg width="52.053mm" height="52.053mm" version="1.1" viewBox="0 0 52.053 52.053" xmlns="http://www.w3.org/2000/svg" xmlns:vectornator="http://vectornator.io">
 <g transform="translate(326.14 -110.71)">
  <g transform="matrix(.27866 0 0 .27866 -331.46 106.3)" clip-rule="evenodd" fill-rule="evenodd" stroke-linecap="round" stroke-linejoin="round">
   <circle transform="matrix(3.5886 0 0 3.5886 806.92 63.911)" cx="-193.5" cy="12.625" r="26.027" fill="#fff" fill-rule="nonzero"/>
   <g transform="matrix(1.3917 0 0 1.3917 -44.072 -16.564)" fill="#2185d0" vectornator:layerName="Layer 1">
    <path d="m108.02 130.16-30.644-59.151s20.728 37.863-4.1795 53.743"/>
    <path d="m118.02 130.38 33.887-5.579s-23.952-14.562-4.491-52.396"/>
    <path d="m112.99 129.15 29.667-57.702s-27.626 42.732-58.927-3.8105"/>
    <path d="m105.91 77.096c0-3.9459 3.199-7.1448 7.145-7.1448s7.144 3.1989 7.144 7.1448c0 3.946-3.198 7.1448-7.144 7.1448s-7.145-3.1988-7.145-7.1448z"/>
    <path d="m65.762 105.27c0-3.945 3.1988-7.1443 7.1448-7.1443s7.1448 3.1993 7.1448 7.1443c0 3.946-3.1988 7.145-7.1448 7.145s-7.1448-3.199-7.1448-7.145z"/>
    <path d="m144.97 105.27c0-3.945 3.199-7.1443 7.145-7.1443s7.145 3.1993 7.145 7.1443c0 3.946-3.199 7.145-7.145 7.145s-7.145-3.199-7.145-7.145z"/>
   </g>
   <g fill="#2185d0" vectornator:layerName="Layer 2">
    <path d="m112.51 33.831c-42.992 0-77.844 34.852-77.844 77.844 0 1.681 0.1449 3.313 0.25 4.968 2.458-40.777 36.23-73.125 77.624-73.125 41.247 0 74.922 32.117 77.594 72.688 0.088-1.512 0.219-2.998 0.219-4.531 0-42.993-34.852-77.844-77.844-77.844z" fill="#2185d0"/>
   </g>
  </g>
 </g>
</svg>
