<?xml version="1.0" encoding="UTF-8"?>
<svg width="1.1347in" height="1.0068in" fill="none" version="1.1" viewBox="0 0 108.93 96.652" xmlns="http://www.w3.org/2000/svg" xmlns:cc="http://creativecommons.org/ns#" xmlns:dc="http://purl.org/dc/elements/1.1/" xmlns:rdf="http://www.w3.org/1999/02/22-rdf-syntax-ns#">
 <defs>
  <linearGradient id="paint0_linear" x1="68.006" x2="9.3084" y1="60.373" y2="-12.793" gradientTransform="translate(-1.0885,-2.3078e-5)" gradientUnits="userSpaceOnUse">
   <stop stop-color="#F2F9FF" offset="0"/>
   <stop stop-color="#fff" offset="1"/>
  </linearGradient>
 </defs>
 <metadata>
  <rdf:RDF>
   <cc:Work rdf:about="">
    <dc:format>image/svg+xml</dc:format>
    <dc:type rdf:resource="http://purl.org/dc/dcmitype/StillImage"/>
    <dc:title/>
   </cc:Work>
  </rdf:RDF>
 </metadata>
 <g transform="matrix(1 0 0 1 -3.7864e-5 -.00050305)" fill="none">
  <path d="m18.396 96.524s-31.546-53.952-12.018-63.443c19.529-9.4915 72.607-69.438 98.645 0 26.038 69.437-86.628 63.443-86.628 63.443z" clip-rule="evenodd" fill="url(#paint0_linear)" fill-opacity=".24" fill-rule="evenodd"/>
 </g>
 <g transform="translate(29.461 23.32)" fill="#ff8634">
  <path d="m33.758 5.005c0.3315 0 0.6495-0.1317 0.8839-0.3661s0.3661-0.5524 0.3661-0.8839v-2.5c0-0.3315-0.1317-0.6495-0.3661-0.8839s-0.5524-0.3661-0.8839-0.3661-0.6495 0.1317-0.8839 0.3661-0.3661 0.5524-0.3661 0.8839v2.5c0 0.3315 0.1317 0.6495 0.3661 0.8839s0.5524 0.3661 0.8839 0.3661z"/>
  <path d="m46.258 17.505h2.5c0.3315 0 0.6495-0.1317 0.8839-0.3661s0.3661-0.5524 0.3661-0.8839-0.1317-0.6495-0.3661-0.8839-0.5524-0.3661-0.8839-0.3661h-2.5c-0.3315 0-0.6495 0.1317-0.8839 0.3661s-0.3661 0.5524-0.3661 0.8839 0.1317 0.6495 0.3661 0.8839 0.5524 0.3661 0.8839 0.3661z"/>
  <path d="m41.259 10.005c0.1639 2e-3 0.3265-0.0303 0.4771-0.0949 0.1507-0.0646 0.2863-0.16 0.3979-0.2801l2.5-2.5c0.1149-0.1149 0.206-0.2513 0.2682-0.4014 0.0622-0.1502 0.0942-0.3111 0.0942-0.4736s-0.032-0.3234-0.0942-0.4735-0.1533-0.2866-0.2682-0.4015-0.2514-0.206-0.4015-0.2682-0.311-0.0942-0.4735-0.0942-0.3234 0.032-0.4736 0.0942c-0.1501 0.0622-0.2865 0.1533-0.4014 0.2682l-2.5 2.5c-0.1196 0.1123-0.2149 0.2478-0.2801 0.3983-0.0651 0.1505-0.0987 0.3127-0.0987 0.4767s0.0336 0.3263 0.0987 0.4768c0.0652 0.1505 0.1605 0.286 0.2801 0.3982 0.1116 0.1201 0.2471 0.2155 0.3978 0.2801s0.3132 0.0969 0.4772 0.0949z"/>
  <path d="m37.358 12.655c-4.0071-4.1543-8.6069-7.6926-13.65-10.5-4.725-2.5-8.2-2.825-10-0.975-0.4057 0.4247-0.7212 0.9272-0.9274 1.4772s-0.299 1.136-0.2726 1.7228v16.275c-0.0297 1.63-0.6828 3.1867-1.825 4.35l-7.7 7.775c-0.9448 0.9305-1.6952 2.0396-2.2073 3.2628-0.5122 1.2232-0.776 2.5361-0.776 3.8622s0.2638 2.6389 0.776 3.8621c0.5121 1.2233 1.2625 2.3324 2.2073 3.2629 0.9305 0.9448 2.0396 1.6952 3.2628 2.2073 1.2233 0.5122 2.5361 0.776 3.8622 0.776s2.639-0.2638 3.8622-0.776c1.2232-0.5121 2.3323-1.2625 3.2628-2.2073l0.275-0.25 1.325 1.3c0.6027 0.6142 1.3227 1.1011 2.1172 1.4318s1.6473 0.4984 2.5078 0.4932c1.7352-0.0066 3.3974-0.6988 4.6243-1.9258 1.2269-1.2269 1.9191-2.8891 1.9257-4.6242 5e-3 -0.8606-0.1625-1.7134-0.4931-2.5079-0.3307-0.7945-0.8176-1.5144-1.4319-2.1171l-0.9-0.925c0.6966-0.2576 1.4324-0.3929 2.175-0.4h16.9c0.1816-0.0059 0.3602-0.0485 0.525-0.125 0.7782-0.1213 1.4969-0.4894 2.05-1.05 1.85-1.825 1.5-5.3-0.975-10-2.8054-5.0519-6.3438-9.6603-10.5-13.675zm-21.925-9.725c0.415-0.3146 0.9309-0.4658 1.45-0.425 1.989 0.1919 3.9104 0.8239 5.625 1.85 4.8045 2.6942 9.199 6.0616 13.05 10 3.9384 3.851 7.3058 8.2455 10 13.05 2.15 4.125 2.1 6.425 1.425 7.125-0.2012 0.1637-0.4332 0.2856-0.6821 0.3586-0.249 0.073-0.5101 0.0956-0.7679 0.0664-3.4217-0.5354-6.6493-1.9383-9.375-4.075-0.975-0.675-1.9-1.375-2.8-2.075 0.2508-0.8103 0.3855-1.652 0.4-2.5 0.0122-1.5525-0.3372-3.0865-1.0206-4.4805-0.6835-1.394-1.6821-2.6098-2.9168-3.5509-1.2347-0.9412-2.6715-1.582-4.1968-1.8716s-3.097-0.2201-4.5908 0.203c-0.675-0.9-1.375-1.825-2.05-2.8-2.1087-2.7503-3.4773-5.9953-3.975-9.425-0.0292-0.2578-7e-3 -0.5189 0.0664-0.7679 0.0729-0.249 0.1949-0.4809 0.3586-0.6821zm15.85 24.15c-1.5-1.25-2.95-2.5-4.375-3.975s-2.725-2.875-3.975-4.375c1.0597-0.1318 2.1353-0.0357 3.1549 0.2818 1.0196 0.3174 1.9596 0.849 2.7572 1.559s1.4344 1.5822 1.8677 2.5581c0.4334 0.976 0.6534 2.0332 0.6452 3.1011 0 0.325-0.05 0.575-0.075 0.85zm-26.55 18.2c-0.7182-0.6989-1.289-1.5346-1.6788-2.4578-0.3897-0.9232-0.5906-1.9151-0.5906-2.9172s0.2009-1.9941 0.5906-2.9173c0.3898-0.9231 0.9606-1.7589 1.6788-2.4577l0.425-0.425c0.361 2.7243 1.6097 5.2538 3.5529 7.1971 1.9433 1.9432 4.4727 3.1919 7.1971 3.5529l-0.425 0.425c-1.447 1.3844-3.3724 2.1571-5.375 2.1571s-3.928-0.7727-5.375-2.1571zm21.6-4.7c0.7513 0.7686 1.1729 1.8002 1.175 2.875 5e-4 1.0753-0.4214 2.1078-1.175 2.875-0.7815 0.7257-1.8085 1.129-2.875 1.129s-2.0935-0.4033-2.875-1.129l-1.3-1.325 5.725-5.675zm3.025-5.575c-1.1438-0.0149-2.2791 0.1985-3.3394 0.6278-1.0603 0.4292-2.0243 1.0657-2.8356 1.8722l-4.9 5h-0.775c-2.6521 0-5.1957-1.0536-7.071-2.929-1.8754-1.8753-2.929-4.4189-2.929-7.071-0.0133-0.2582-0.0133-0.5169 0-0.775l5-5c0.802-0.8146 1.4355-1.7792 1.8645-2.8388 0.4289-1.0595 0.6449-2.1932 0.6355-3.3362v-8.675c0.65 1.175 1.35 2.3 2.025 3.275 0.975 1.45 1.975 2.775 3 4.025 1.6073 1.9805 3.318 3.8748 5.125 5.675 1.825 1.825 3.725 3.55 5.65 5.125 1.275 1.025 2.5 2 4.05 3 0.975 0.675 2.1 1.375 3.275 2.025z"/>
 </g>
</svg>
