<?xml version="1.0" encoding="UTF-8"?>
<svg width="1.1347in" height="1.0068in" fill="none" version="1.1" viewBox="0 0 108.93 96.652" xmlns="http://www.w3.org/2000/svg" xmlns:cc="http://creativecommons.org/ns#" xmlns:dc="http://purl.org/dc/elements/1.1/" xmlns:rdf="http://www.w3.org/1999/02/22-rdf-syntax-ns#">
 <defs>
  <linearGradient id="paint0_linear" x1="68.006" x2="9.3084" y1="60.373" y2="-12.793" gradientTransform="translate(-1.0885,-2.3078e-5)" gradientUnits="userSpaceOnUse">
   <stop stop-color="#F2F9FF" offset="0"/>
   <stop stop-color="#fff" offset="1"/>
  </linearGradient>
 </defs>
 <metadata>
  <rdf:RDF>
   <cc:Work rdf:about="">
    <dc:format>image/svg+xml</dc:format>
    <dc:type rdf:resource="http://purl.org/dc/dcmitype/StillImage"/>
    <dc:title/>
   </cc:Work>
  </rdf:RDF>
 </metadata>
 <g transform="matrix(1 0 0 1 -3.7864e-5 -.00050305)" fill="none">
  <path d="m18.396 96.524s-31.546-53.952-12.018-63.443c19.529-9.4915 72.607-69.438 98.645 0 26.038 69.437-86.628 63.443-86.628 63.443z" clip-rule="evenodd" fill="url(#paint0_linear)" fill-opacity=".24" fill-rule="evenodd"/>
 </g>
 <g transform="matrix(1 0 0 1 28.964 22.826)" fill="none">
  <path d="m22.593 0.5c-13.069 0-22.093 11.072-22.093 22.093 0 6.6485 2.9095 12.297 7.0797 16.218 3.9472 3.7113 9.7046 5.8752 13.85 5.8752 0.3728 0 0.5814-0.303 0.5814-0.5814 0-0.2504-0.0823-0.4932-0.4542-0.5813-2.4527-0.5814-4.7316-2.9342-6.4135-6.6861-0.5277-1.1772-0.9732-2.4866-1.3626-3.8881 1.6577 0.3376 3.4221 0.5664 5.287 0.6904 0.3044 0.0191 0.5987-0.2406 0.6177-0.545 0.0191-0.3044-0.2406-0.5987-0.545-0.6178-2.0335-0.1352-3.942-0.4092-5.705-0.7994-0.6096-2.5894-0.958-5.4728-0.9992-8.5029h9.5748v2.3256c-0.0043 0.3072 0.2742 0.5897 0.5814 0.5897s0.5858-0.2825 0.5814-0.5897v-2.3256h2.3256c0.3072 0.0044 0.5897-0.2742 0.5897-0.5814s-0.2825-0.5857-0.5897-0.5814h-2.3256v-9.5748c3.0013 0.0401 5.843 0.3888 8.4121 0.9811 0.417 1.7839 0.7272 3.6942 0.8902 5.7231 0.0238 0.3044 0.3224 0.5597 0.6269 0.536 0.3044-0.0238 0.5597-0.3224 0.5359-0.6269-0.1496-1.8612-0.4182-3.6305-0.7812-5.3052 1.4407 0.3925 2.792 0.8413 3.9971 1.3808 2.5981 1.072 6.0865 3.3976 6.6679 6.3045 0 0.3211 0.2603 0.5814 0.5814 0.5814 0.321 0 0.5814-0.2603 0.5814-0.5814-0.5814-10.465-9.3448-20.93-22.093-20.93zm-0.5814 1.2173v9.5567c-2.9172 0.0378-5.6971 0.3528-8.2303 0.9084 0.4722-1.671 1.0581-3.2064 1.726-4.5421 1.7531-3.5062 4.0645-5.6252 6.5043-5.923zm1.1628 0c2.1788 0.2571 4.2089 1.9439 5.8503 4.8147 0.8975 1.5697 1.6445 3.4885 2.2347 5.6322-2.5021-0.5353-5.2237-0.853-8.085-0.8902zm3.6701 0.3815c8.0912 1.665 14.478 7.9873 16.224 16.043-1.3121-1.594-3.2978-2.9759-5.7412-4.0698-1.4417-0.6454-3.0469-1.1789-4.7784-1.617-0.6334-2.4694-1.4833-4.6816-2.5254-6.5043-0.915-1.6003-1.9868-2.9108-3.1795-3.8518zm-8.5393 0.0182c-1.4725 1.1586-2.7738 2.8768-3.8335 4.9964-0.7898 1.5794-1.4435 3.3976-1.9623 5.3779-1.9882 0.516-3.8112 1.1698-5.396 1.9622-2.112 1.056-3.8379 2.3628-4.9964 3.8336 1.695-8.1095 8.0763-14.482 16.188-16.17zm3.7064 10.32v9.5748h-9.5748c0.0419-3.0578 0.3975-5.9456 1.0174-8.5392 2.5985-0.6227 5.492-0.9936 8.5574-1.0356zm-9.8292 1.3626c-0.5593 2.5309-0.8698 5.2981-0.9084 8.2122h-9.5749c0.2976-2.44 2.4348-4.7511 5.9412-6.5043 1.3365-0.6683 2.8699-1.2354 4.5421-1.7079zm-10.483 9.375h9.5749c0.0377 2.9004 0.3578 5.6632 0.9084 8.1941-2.2133-0.5842-4.1578-1.3543-5.7413-2.2711-2.8439-1.6466-4.501-3.6833-4.742-5.923zm33.685 2.907c-5.1306 0-9.3023 4.1717-9.3023 9.3023 0 5.1307 4.1717 9.3023 9.3023 9.3023 2.3564 0 4.5186-0.8769 6.1592-2.3255l7.9578 7.9578c0.1089 0.11 0.266 0.1814 0.4179 0.1817 0.1475 3e-4 0.2991-0.0701 0.4064-0.1751 0.1087-0.1063 0.1725-0.2588 0.175-0.4063 0.0025-0.1496-0.0572-0.308-0.1635-0.4179l-7.976-7.976c1.4433-1.6393 2.3256-3.7894 2.3256-6.141 0-5.1306-4.1717-9.3023-9.3024-9.3023zm-33.248 0.9084c0.9175 1.1664 2.1811 2.2133 3.7245 3.1069 1.8345 1.0621 4.0759 1.922 6.6134 2.5436 0.4334 1.6875 0.9666 3.2588 1.5988 4.6693 1.0953 2.4431 2.4753 4.4426 4.0698 5.7594-8.0096-1.7322-14.297-8.0548-16.006-16.079zm33.248 0.2544c4.5023 0 8.1396 3.6373 8.1396 8.1395s-3.6373 8.1396-8.1396 8.1396c-4.5022 0-8.1395-3.6374-8.1395-8.1396s3.6373-8.1395 8.1395-8.1395z" fill="#ff7979" stroke="#ff7979"/>
 </g>
</svg>
